<svg width="147" height="50" viewBox="0 0 147 50" fill="none" xmlns="http://www.w3.org/2000/svg">
<g clip-path="url(#clip0_4_145)">
<path d="M33.9988 26.5681C33.9385 20.2412 39.1676 17.2014 39.4029 17.0567C36.4596 12.7563 31.8878 12.1653 30.2593 12.0989C26.3691 11.7008 22.6658 14.3908 20.6876 14.3908C18.7093 14.3908 15.6634 12.1532 12.4366 12.2195C8.19057 12.2798 4.27621 14.6864 2.08683 18.4861C-2.31607 26.1218 0.964993 37.4608 5.26536 43.6671C7.3703 46.7008 9.86729 50.1206 13.1604 49.994C16.3329 49.8673 17.5271 47.9433 21.351 47.9433C25.1749 47.9433 26.2545 49.994 29.6019 49.9337C33.0096 49.8673 35.1689 46.8335 37.2557 43.7877C39.6562 40.2593 40.6514 36.8516 40.7117 36.6707C40.6333 36.6405 34.0711 34.1254 33.9988 26.5681Z" fill="#8C9295"/>
<path d="M27.7081 7.98552C29.4572 5.86852 30.6333 2.93124 30.3136 0C27.7986 0.102533 24.7527 1.67672 22.9493 3.79373C21.3329 5.66345 19.9156 8.65501 20.3016 11.5259C23.0941 11.7431 25.965 10.0965 27.7081 7.98552ZM56.0555 32.7865L53.1604 41.5621H49.4391L58.9144 13.6731H63.2569L72.7684 41.5621H68.9204L65.9409 32.7865H56.0555ZM65.199 29.9698L62.4729 21.9421C61.8516 20.1206 61.4415 18.468 61.0253 16.8516H60.9469C60.5308 18.5042 60.0784 20.199 59.5416 21.8999L56.8154 29.9638L65.199 29.9698ZM75.5911 28.07C75.5911 25.5066 75.5127 23.4318 75.4222 21.532H78.6912L78.8601 24.9698H78.9385C80.4282 22.5271 82.7865 21.0796 86.0555 21.0796C90.8987 21.0796 94.5356 25.1749 94.5356 31.2606C94.5356 38.462 90.1508 42.0145 85.4343 42.0145C82.7865 42.0145 80.4705 40.8565 79.2702 38.8721H79.1918V49.7527H75.5911V28.07ZM79.1858 33.4077C79.1858 33.9505 79.2642 34.4391 79.3546 34.8975C80.0181 37.4186 82.2075 39.1616 84.8191 39.1616C88.6671 39.1616 90.9047 36.0193 90.9047 31.4234C90.9047 27.4065 88.7937 23.9807 84.9457 23.9807C82.4668 23.9807 80.1508 25.76 79.4391 28.4922C79.3124 28.9445 79.1918 29.4873 79.1918 29.9819L79.1858 33.4077ZM98.2992 28.07C98.2992 25.5066 98.2208 23.4318 98.1303 21.532H101.399L101.568 24.9698H101.647C103.136 22.5271 105.495 21.0796 108.764 21.0796C113.607 21.0796 117.244 25.1749 117.244 31.2606C117.244 38.462 112.859 42.0145 108.142 42.0145C105.495 42.0145 103.179 40.8565 101.978 38.8721H101.9V49.7527H98.2992V28.07ZM101.9 33.4077C101.9 33.9505 101.978 34.4391 102.069 34.8975C102.732 37.4186 104.922 39.1616 107.533 39.1616C111.381 39.1616 113.619 36.0193 113.619 31.4234C113.619 27.4065 111.508 23.9807 107.66 23.9807C105.181 23.9807 102.865 25.76 102.153 28.4922C102.027 28.9445 101.906 29.4873 101.906 29.9819L101.9 33.4077ZM121.013 12.1834H124.656V41.5561H121.013V12.1834ZM131.978 32.2075C132.057 37.1291 135.205 39.1616 138.842 39.1616C141.448 39.1616 143.022 38.7093 144.385 38.1303L145.006 40.7358C143.727 41.3148 141.532 41.9783 138.347 41.9783C132.183 41.9783 128.498 37.9252 128.498 31.8818C128.498 25.8384 132.057 21.0796 137.889 21.0796C144.427 21.0796 146.164 26.8275 146.164 30.5127C146.164 31.2606 146.086 31.8335 146.037 32.2075H131.978ZM142.654 29.6019C142.696 27.2859 141.701 23.6852 137.606 23.6852C133.92 23.6852 132.31 27.0808 132.021 29.6019H142.654Z" fill="#8C9295"/>
</g>
<defs>
<clipPath id="clip0_4_145">
<rect width="146.17" height="50" fill="white"/>
</clipPath>
</defs>
</svg>
