<svg width="141" height="50" viewBox="0 0 141 50" fill="none" xmlns="http://www.w3.org/2000/svg">
<g clip-path="url(#clip0_4_302)">
<path d="M6.13096 48.7231C4.50574 48.7223 2.94728 48.0765 1.79778 46.9276C0.648278 45.7787 0.0016936 44.2206 0 42.5953L0 25.6857C0.421943 26.4241 0.7384 27.1657 1.16354 27.9041C1.48 28.4315 1.79645 29.0644 2.11291 29.595C2.64354 30.7586 3.06548 31.9189 3.06548 31.9189L5.28387 32.6573C7.50227 36.6754 9.72386 41.1153 11.8368 44.916C12.1532 45.3412 12.3642 45.7631 12.5752 46.2905C12.9971 47.2431 13.4223 48.087 13.7355 48.7231H6.13096ZM27.5829 45.6576C28.5355 45.0247 28.5355 43.9699 28.5355 43.3337C28.43 42.9086 28.2158 42.2757 28.1135 41.8537C28.3245 39.8431 27.7971 38.1554 27.2665 36.5699C26.8701 35.1762 26.3171 33.7218 26.3171 31.9189V31.8166C26.2084 31.0782 26.1029 30.2311 25.8919 29.4927C25.7865 28.2237 25.7865 27.3766 25.7865 27.3766L25.681 27.1657C25.47 26.6382 25.2558 26.1076 25.1535 25.4747C25.0481 25.1582 25.0481 24.7363 24.9426 24.4198C25.1535 24.2089 25.259 24.1002 25.259 23.8924C25.3645 23.7869 25.47 23.6814 25.5787 23.4673V23.3618L25.7865 23.1508L25.8919 22.9398C26.1029 22.2014 25.8919 20.8269 24.7284 20.5073C24.5174 20.0853 24.4119 19.6602 24.201 19.1328C23.99 18.3944 23.8813 17.5473 23.6704 16.7034C23.3571 15.1211 22.721 13.1105 21.1355 11.9469L20.819 11.6305H20.3971C20.1861 11.736 19.9752 11.6305 19.6587 11.6305C19.2336 11.5282 18.9171 11.4195 18.6006 11.314C18.1546 11.1023 17.6671 10.9924 17.1734 10.9924C16.6797 10.9924 16.1921 11.1023 15.7461 11.314C15.1132 11.314 14.3716 11.4195 13.6332 11.525C13.2113 11.6305 12.8948 11.6305 12.5784 11.6305C12.5784 11.4195 12.6839 11.2085 12.6839 10.9944L12.7861 10.8921V10.6811C12.7157 9.80613 12.5019 8.94867 12.1532 8.14307H23.99C27.2665 8.14307 30.0155 10.8921 30.0155 14.274V42.5953C30.0337 44.0245 29.5446 45.4139 28.6351 46.5165C27.7256 47.6192 26.4546 48.3636 25.0481 48.6176C26.1029 47.8792 27.0555 46.9298 27.5829 45.6576ZM0 14.274V13.8521C0.952568 15.2266 2.53805 15.754 3.5961 16.0705L3.91256 16.176C3.07611 16.8135 2.26465 17.4831 1.48 18.1834L1.37451 18.2889C0.866279 18.8099 0.406234 19.3759 0 19.9798L0 14.274Z" fill="#8C9295"/>
<path d="M137.17 17.0198C134.951 16.5979 134.951 13.8489 134.951 12.1579C134.951 10.5724 136.115 8.565 137.7 8.565C139.391 8.565 140.449 10.2528 140.449 11.9469C140.449 13.4269 139.497 17.1253 137.489 17.1253C137.384 17.1253 137.275 17.1253 137.17 17.0198ZM36.4597 27.3766C34.9797 27.3766 34.3468 27.2711 33.8162 26.846C33.1962 26.4627 32.7432 25.8602 32.5471 25.1582C32.4417 24.7331 32.4417 24.4198 32.4417 23.1508V12.8995C32.4417 11.4195 32.4417 11.2085 32.5471 10.7866C33.0778 9.41208 34.1326 8.77917 35.9291 8.77917H39.733C42.482 8.77917 44.7004 9.51757 46.4968 11.1031C48.3988 12.8995 49.5591 15.4344 49.5591 18.0779C49.5591 20.6128 48.3956 23.1508 46.4968 24.8418C45.3062 26.0169 43.8026 26.8247 42.1655 27.1688C41.1145 27.3103 40.0551 27.3807 38.9946 27.3798L36.4597 27.3766ZM38.5726 21.6708C40.6855 21.5653 41.2129 21.5653 41.9545 21.0347C42.8016 20.3986 43.4345 19.2382 43.4345 18.0747C43.4345 16.7002 42.6961 15.4312 41.4271 14.9037C40.8965 14.5841 40.2636 14.4818 39.1 14.4818H38.5726V21.6708ZM53.2639 24.6308C52.1004 23.0453 51.6784 21.7763 51.6784 19.2414V12.6885C51.6784 10.9976 51.8894 10.4701 52.4168 9.83403C52.9474 9.09563 53.8968 8.67368 54.8494 8.67368C55.5878 8.67368 56.5403 8.99014 57.0678 9.62306C57.7039 10.256 57.9149 10.8921 57.9149 12.2666V19.5579C57.9149 20.9324 58.5478 21.7763 59.6058 21.7763C60.6607 21.7763 61.1913 20.9324 61.1913 19.6634V12.2666C61.1913 10.8921 61.4023 10.4701 61.9297 9.83403C62.2033 9.47666 62.5549 9.1864 62.9576 8.98533C63.3603 8.78427 63.8035 8.67768 64.2536 8.67368C65.2062 8.67368 66.1555 9.09563 66.6861 9.72854C67.2136 10.4669 67.4245 10.9944 67.4245 12.6885V19.2414C67.4245 21.7763 66.7916 23.5727 65.4171 25.0527C64.707 25.9061 63.8189 26.594 62.8151 27.0683C61.8113 27.5426 60.716 27.7918 59.6058 27.7986C58.3737 27.8085 57.1568 27.5267 56.0545 26.9761C54.9522 26.4256 53.996 25.6219 53.2639 24.6308ZM81.1633 26.2131L76.3013 19.9798V23.8924C76.3013 25.1582 76.0904 25.6889 75.5629 26.4273C75.2681 26.7535 74.9094 27.0157 74.5092 27.1977C74.1089 27.3797 73.6755 27.4776 73.2359 27.4853C72.2833 27.4853 71.3339 27.0602 70.701 26.3218C70.2759 25.5802 70.0649 25.0527 70.0649 23.6782V11.9469C70.0649 9.93951 71.3339 8.67368 73.3413 8.67368C74.1852 8.67368 74.9268 8.99014 75.5597 9.83403L80.4217 15.8595V12.3721C80.4217 11.2085 80.6326 10.5756 81.0546 9.94271C81.3488 9.54832 81.7314 9.22838 82.1716 9.00856C82.6118 8.78873 83.0974 8.67513 83.5894 8.67688C84.4333 8.67688 85.2804 8.99334 85.9133 9.73174C86.4439 10.3647 86.6517 10.9976 86.6517 12.1643V23.5759C86.6517 25.0559 86.4408 25.6889 85.9133 26.3218C85.6402 26.6799 85.2888 26.9709 84.8861 27.1725C84.4833 27.3742 84.0398 27.4812 83.5894 27.4853C82.5346 27.4853 81.7962 27.0602 81.1633 26.2131ZM100.291 26.5327L95.7491 20.7214V23.9947C95.7491 26.1076 94.48 27.4853 92.5781 27.4853C90.6762 27.4853 89.5126 26.1076 89.5126 23.9947V12.0556C89.5126 10.0482 90.7816 8.67368 92.5781 8.67368C93.4252 8.67368 94.3745 8.99014 94.9052 9.62306C95.4326 10.256 95.7523 10.9976 95.7523 12.0556V15.0156L99.1342 10.0482C99.3972 9.61516 99.7704 9.25972 100.216 9.01823C100.661 8.77673 101.163 8.65783 101.669 8.67368C103.36 8.67368 104.731 10.0482 104.731 11.736C104.731 12.2666 104.52 12.8995 104.309 13.3214L101.138 17.8669L104.942 22.7289C105.364 23.1508 105.47 23.7869 105.47 24.4198C105.469 25.232 105.146 26.0108 104.572 26.5854C103.998 27.16 103.22 27.4836 102.407 27.4853C101.557 27.4853 100.713 27.1657 100.291 26.5327ZM108.216 26.5327C107.579 25.8998 107.477 25.2669 107.477 23.9947V12.4744C107.477 10.8889 107.583 10.3615 108.216 9.61986C108.746 8.98695 109.59 8.67049 110.434 8.67049C111.387 8.67049 112.23 8.98695 112.761 9.61986C113.394 10.256 113.605 10.8921 113.605 12.4744V23.9947C113.605 25.1582 113.285 25.8998 112.758 26.4273C112.477 26.7426 112.137 26.9987 111.756 27.1804C111.375 27.3621 110.961 27.4658 110.539 27.4853C109.692 27.4853 108.746 27.0602 108.216 26.5327ZM127.449 26.2131L122.587 19.9798V23.8924C122.587 25.1582 122.482 25.6889 121.954 26.4273C121.639 26.7549 121.262 27.0171 120.845 27.1986C120.428 27.3802 119.98 27.4776 119.525 27.4853C118.572 27.4853 117.623 27.0602 117.092 26.3218C116.565 25.5802 116.459 25.0527 116.459 23.6782V11.9469C116.459 9.93951 117.725 8.67368 119.63 8.67368C120.58 8.67368 121.216 8.99014 121.957 9.83403L126.819 15.8595V12.3721C126.819 11.2085 126.925 10.5756 127.35 9.94271C127.877 9.20431 128.936 8.67688 129.885 8.67688C130.837 8.67688 131.681 8.99334 132.212 9.73174C132.743 10.3647 132.95 10.9976 132.95 12.1643V23.5759C132.95 25.0559 132.845 25.6889 132.317 26.3218C132.023 26.6829 131.652 26.9745 131.231 27.1756C130.811 27.3767 130.351 27.4825 129.885 27.4853C129.406 27.4857 128.935 27.3702 128.511 27.1486C128.086 26.9271 127.722 26.6061 127.449 26.2131Z" fill="#8C9295"/>
<path d="M138.017 29.7005C136.751 29.7005 135.588 30.7586 135.588 32.1331C135.588 33.5076 136.751 34.5656 138.017 34.5656C139.391 34.5656 140.449 33.5076 140.449 32.1331C140.449 30.7586 139.388 29.7005 138.017 29.7005ZM138.017 34.246C136.857 34.246 135.904 33.2934 135.904 32.1331C135.904 30.9727 136.857 30.0202 138.017 30.0202C139.18 30.0202 140.13 30.9727 140.13 32.1331C140.13 33.2934 139.18 34.246 138.017 34.246Z" fill="#8C9295"/>
<path d="M139.283 31.5002C139.283 31.2892 139.177 31.0782 138.966 30.8673C138.755 30.7586 138.544 30.7586 138.333 30.7586H137.17V33.5044H137.489V32.2386H138.122L138.861 33.5044H139.283L138.439 32.2386C138.861 32.2386 139.283 32.0276 139.283 31.5002ZM138.017 31.9189H137.489V30.9728H138.228C138.544 30.9728 138.966 31.0782 138.966 31.5002C138.969 32.0276 138.333 31.9189 138.017 31.9189ZM36.5652 48.4099C35.0852 48.4099 34.5578 48.3044 34.0303 47.9847C33.2919 47.4573 32.87 47.0354 32.7645 46.2938C32.659 45.8718 32.659 45.5554 32.659 44.2863V34.035C32.659 32.4528 32.659 32.3473 32.7645 31.9221C33.1865 30.5476 34.35 29.9147 36.041 29.9147H39.8448C42.5907 29.9147 44.8123 30.6531 46.6087 32.2418C47.5704 33.1089 48.3397 34.1679 48.8672 35.3505C49.3946 36.5331 49.6684 37.8131 49.671 39.1079C49.671 41.7515 48.5075 44.1808 46.711 45.9773C45.4452 47.0354 43.8565 47.8792 42.2742 48.1957C41.2236 48.3412 40.1639 48.4117 39.1032 48.4067H36.5652V48.4099ZM38.6813 42.8063C40.7942 42.8063 41.3216 42.7009 42.0632 42.1734C43.0158 41.5405 43.6487 40.377 43.6487 39.2134C43.6487 37.8389 42.8016 36.4676 41.6413 35.9402C41.0084 35.6205 40.3755 35.515 39.2119 35.515H38.6845V42.8063H38.6813ZM50.1984 39.1047C50.1984 33.7154 54.5297 29.4896 60.0246 29.4896C65.4171 29.4896 69.7484 33.8209 69.7484 39.1047C69.7484 44.4973 65.4171 48.9341 60.0246 48.9341C58.7332 48.9366 57.4541 48.6841 56.2605 48.191C55.067 47.6979 53.9827 46.9739 53.0697 46.0606C52.1567 45.1473 51.4331 44.0627 50.9403 42.869C50.4476 41.6754 50.1955 40.3961 50.1984 39.1047ZM56.3262 39.1047C56.3262 41.2209 58.0172 42.9086 60.0246 42.9086C61.0021 42.8978 61.9365 42.5047 62.6278 41.8134C63.319 41.1222 63.7122 40.1878 63.723 39.2102C63.723 37.2028 62.032 35.5118 60.0246 35.5118C58.0172 35.5118 56.3262 37.1005 56.3262 39.1047ZM81.9017 47.3518L77.0397 41.0131V45.0279C77.0397 46.2938 76.8288 46.8244 76.3013 47.4605C76.0274 47.8183 75.6753 48.1088 75.272 48.3099C74.8688 48.511 74.4249 48.6173 73.9743 48.6208C73.0217 48.6208 72.1778 48.0934 71.5417 47.355C71.0143 46.7221 70.9088 46.1947 70.9088 44.8202V32.9834C70.9088 31.0814 72.1746 29.8124 74.0798 29.8124C74.9236 29.8124 75.6652 30.1321 76.2981 30.976L81.2656 37.1037V33.5108C81.2656 32.245 81.4765 31.7144 81.8985 31.0814C82.4259 30.2344 83.3785 29.8124 84.3279 29.8124C85.2772 29.8124 86.0188 30.1321 86.6517 30.8705C87.1824 31.5034 87.3901 32.1363 87.3901 33.2998V44.7147C87.3901 46.1947 87.1792 46.7221 86.6517 47.4605C86.1243 48.1989 85.2772 48.6208 84.3279 48.6208C83.3785 48.6208 82.5346 48.1957 81.9017 47.3518ZM90.8839 45.6576C89.7204 44.1777 89.4039 42.8031 89.4039 40.377V33.8241C89.4039 32.0276 89.5094 31.6057 89.9346 30.9696C90.5675 30.2312 91.5201 29.806 92.3639 29.806C93.211 29.806 94.0549 30.1257 94.5823 30.7586C95.2185 31.3915 95.4294 32.0244 95.4294 33.2934V40.6902C95.4294 42.0647 96.0623 42.9086 97.1204 42.9086C98.2807 42.9086 98.9168 42.0615 98.9168 40.7957V33.2902C98.9168 31.9157 99.0223 31.6025 99.5529 30.8609C99.8403 30.5264 100.197 30.2584 100.598 30.0757C101 29.893 101.436 29.7999 101.877 29.8028C102.724 29.8028 103.673 30.228 104.204 30.8609C104.837 31.4938 104.942 32.1267 104.942 33.7154V40.3738C104.942 42.9086 104.309 44.7051 103.04 46.1851C101.56 47.8728 99.342 48.9309 97.1236 48.9309C94.6878 48.9373 92.3639 47.6683 90.8839 45.6576ZM111.07 47.3518C110.648 46.7189 110.539 46.1915 110.539 44.9192V35.515H108.848C107.79 35.515 107.158 35.3073 106.63 34.7766C105.997 34.1437 105.681 33.5108 105.681 32.7692C105.681 31.7144 106.419 30.5508 107.266 30.2344C107.899 29.9147 108.11 29.9147 110.648 29.9147H118.892C120.369 30.1257 121.321 31.2892 121.321 32.6605C121.321 33.5076 121.005 34.3515 120.372 34.8789C119.95 35.3041 119.103 35.5118 118.048 35.5118H116.568V44.8138C116.568 45.9741 116.463 46.6102 116.037 47.2431C115.507 48.0902 114.663 48.6176 113.608 48.6176C112.553 48.6176 111.703 48.0902 111.07 47.3518ZM121.002 44.2863C121.002 42.7009 122.268 41.5405 123.748 41.5405C124.486 41.5405 125.122 41.7515 125.966 42.3876C127.232 43.4424 127.446 43.5479 127.973 43.5479C128.395 43.5479 128.712 43.2315 128.712 42.7009C128.712 42.2789 128.606 42.0679 128.29 41.857C128.079 41.7515 127.97 41.646 127.021 41.3263C126.493 41.1186 125.966 41.0099 125.544 40.7989C122.795 39.8463 121.529 38.0531 121.529 35.515C121.529 31.9221 124.275 29.4928 128.293 29.4928C131.675 29.4928 134.21 31.1805 134.21 33.5076C134.21 34.8821 133.26 35.9402 131.883 35.9402C131.039 35.9402 130.406 35.7292 129.348 34.8821C128.715 34.3547 128.399 34.2492 128.082 34.2492C127.66 34.2492 127.235 34.5689 127.235 34.9876C127.235 35.6205 127.657 35.8347 129.137 36.3621C130.722 36.7873 132.199 37.6311 133.046 38.2673C134.21 39.2166 134.948 40.9076 134.948 42.704C134.948 44.2895 134.315 45.875 133.152 47.0386C131.988 48.3044 130.297 48.9405 127.973 48.9405C124.067 48.9373 121.002 46.8244 121.002 44.2863Z" fill="#8C9295"/>
<path d="M12.1532 35.9369C12.1532 36.0424 12.1532 36.1479 12.0477 36.2534H11.8368C11.7313 36.0456 11.5171 35.8314 11.4148 35.515C11.7313 35.5118 12.0477 35.6205 12.1532 35.9369ZM15.0077 34.9844C15.0077 35.1953 15.2187 35.5118 15.1132 35.7228C15.2187 35.8282 15.2187 35.9337 15.1132 36.0424C14.7968 36.3589 14.2661 36.4644 13.7387 36.3589C13.2113 36.0424 13.1058 35.4095 12.7861 34.9844C12.6807 34.7734 12.6807 34.5624 12.8916 34.4569C13.1026 34.246 13.3136 34.4569 13.5245 34.4569C13.841 34.8789 13.841 35.5118 14.2629 35.7228C14.4739 35.4063 14.2629 34.8757 14.052 34.5624C14.052 34.4569 13.9465 34.2428 14.052 34.1373C14.1575 33.9295 14.3684 34.0318 14.5794 34.0318C14.7968 34.246 14.9023 34.6711 15.0077 34.9844ZM12.2587 34.8789C12.6839 35.1985 12.9971 35.8314 12.8948 36.3589C12.7664 36.5504 12.5934 36.7081 12.3908 36.8183C12.1882 36.9285 11.9619 36.988 11.7313 36.9918C11.6258 36.9918 11.4148 36.9918 11.4148 36.8895C11.2039 36.5698 10.9929 36.2534 10.8842 35.9369C10.7787 35.8314 10.8842 35.726 10.7787 35.6173C10.6732 35.4095 10.4623 35.1953 10.5678 34.9844C10.9897 34.6679 11.5171 34.7734 12.0477 34.7734L12.2587 34.8789ZM16.6987 33.1911C17.0184 33.824 17.3316 34.4569 17.5458 35.1985C17.4403 35.304 17.4403 35.4095 17.3348 35.4095C17.0184 35.5118 16.7019 35.1985 16.3854 35.0898H16.2768C16.2768 35.4095 16.4877 35.6173 16.2768 35.8282C16.0658 35.9337 15.8516 35.9337 15.8516 35.8282C15.5352 35.1953 15.1132 34.5624 15.0077 33.8208C15.4297 33.2902 15.8516 34.1373 16.3823 34.2428H16.4877C16.4877 33.9263 16.0658 33.6098 16.3823 33.2902C16.4877 33.1911 16.59 33.1911 16.6987 33.1911ZM19.0226 32.4495C19.0226 32.766 19.0226 33.1879 18.8116 33.5044C19.0226 33.7153 19.2336 33.824 19.3422 33.9295C19.4395 33.9785 19.5208 34.054 19.5769 34.1474C19.6329 34.2407 19.6613 34.3481 19.6587 34.4569C19.5532 34.6679 19.3422 34.7734 19.1313 34.6679L18.4952 34.3482C18.4952 34.6679 18.7061 34.9812 18.3897 35.0866C18.2842 35.1921 18.1787 35.1921 18.07 35.1921C17.7536 34.6647 17.5426 34.0286 17.3316 33.3957C17.3316 33.2902 17.1207 32.9737 17.3316 32.8682C17.5426 32.8682 17.6513 32.7628 17.7568 32.8682C17.8597 33.1021 18.0025 33.3162 18.1787 33.5012L18.6006 32.4463C18.7061 32.344 18.9171 32.2385 19.0226 32.4495ZM19.8697 32.0276C20.0806 32.6605 20.5026 33.2934 20.5026 33.9327C20.3971 34.1405 20.2916 34.2492 20.0806 34.1405C19.8697 34.1405 19.9752 33.824 19.8697 33.824C19.6587 33.1911 19.2336 32.6605 19.4477 32.0276C19.4445 31.8166 19.7642 31.8166 19.8697 32.0276ZM22.0881 31.0782C22.299 31.7111 22.721 32.344 22.6155 32.9801L22.1936 33.1911C21.8771 33.1911 21.6629 32.8714 21.3497 32.766C21.2442 32.9769 21.3497 33.1911 21.3497 33.3989C21.3497 33.5044 21.2442 33.7185 21.1387 33.824C20.9277 34.0318 20.9277 33.613 20.7168 33.5044C20.5058 32.9769 20.1893 32.2385 20.2948 31.4969C20.7168 31.286 21.1419 31.8166 21.6693 31.9189C21.6693 31.6024 21.4584 31.1805 21.5638 30.9695C21.6693 30.864 21.7748 30.6499 21.9858 30.864L22.0881 31.0782ZM22.8265 30.4421C22.932 30.7617 23.0374 31.2892 22.721 31.5001C22.4013 31.5001 22.51 31.0782 22.4013 30.8672C22.4013 30.6562 22.4013 30.4421 22.5068 30.2343C22.721 30.2311 22.721 30.2311 22.8265 30.4421Z" fill="#8C9295"/>
<path d="M13.4223 38.264C13.4223 38.3663 13.6332 38.5805 13.5277 38.7915C13.4223 38.7915 13.3168 38.897 13.2113 38.7915C13.0003 38.5805 13.0003 38.4718 12.8948 38.1586C13.1058 38.1586 13.2113 38.1586 13.4223 38.264ZM15.6407 37.7334C15.7461 37.9444 15.7461 38.0531 15.6407 38.264C15.5352 38.3663 15.3242 38.1586 15.2187 38.1586C15.0077 38.0531 14.9023 37.8389 15.0077 37.6311C15.1132 37.5256 15.3242 37.6311 15.4297 37.6311L15.6407 37.7334ZM16.1713 37.3115C16.3823 37.7334 16.6987 38.1586 16.3823 38.5773C16.1713 38.897 15.5384 39.0024 15.1164 38.897C14.6945 38.7915 14.3748 38.3663 14.2661 37.9444C14.2661 37.7334 14.2661 37.417 14.3716 37.206C14.5826 36.995 14.8991 36.8895 15.2155 36.784C15.5352 36.8895 16.0626 36.9918 16.1713 37.3115ZM14.0552 37.9444L14.2661 38.4718C14.3716 38.6828 14.2661 39.0024 14.0552 39.2102C13.7355 39.5299 13.2081 39.5299 12.7861 39.5299C12.5752 39.4244 12.5752 39.2102 12.3642 39.0024C12.2587 38.6828 12.0477 38.264 11.9423 37.9444C12.0477 37.8389 11.8368 37.7334 12.0477 37.6279C12.3659 37.4353 12.7419 37.3614 13.1093 37.4194C13.4767 37.4773 13.8117 37.6632 14.0552 37.9444ZM17.9677 35.8315C18.2842 36.5699 18.8116 37.206 18.6006 37.9444C18.1787 38.264 17.8622 37.7334 17.4371 37.6279C17.2261 37.8389 17.6481 38.3663 17.2261 38.4718C17.1206 38.4718 17.0152 38.3663 16.9097 38.264C16.8042 37.6311 16.2768 37.206 16.3791 36.5731C16.4845 36.3621 16.6955 36.4676 16.9097 36.4676L17.6481 36.7872C17.5426 36.4676 17.4371 36.1543 17.6481 35.9402C17.6481 35.8347 17.7536 35.8347 17.7536 35.8347C17.859 35.8315 17.9677 35.726 17.9677 35.8315ZM20.1861 35.3041C20.3971 35.8315 20.7136 36.5699 20.3971 37.1005C20.2916 37.3115 19.9752 37.5256 19.6587 37.6311C18.8116 37.6311 18.7093 36.784 18.3929 36.1511C18.3929 36.0456 18.2874 35.9402 18.3929 35.8315C18.6038 35.726 18.7093 35.6205 18.9203 35.726C19.2368 36.0456 19.1313 36.784 19.7674 36.8895C19.9784 36.4644 19.6619 35.937 19.5564 35.5118C19.5564 35.4095 19.5564 35.3041 19.6619 35.1954C19.8697 35.0931 20.0806 35.1986 20.1861 35.3041ZM23.2484 33.9295C23.1429 34.0318 23.3539 34.1373 23.2484 34.246C22.932 34.246 22.8265 34.457 22.6155 34.3515C22.51 34.457 22.6155 34.5625 22.6155 34.5625C22.932 34.5625 23.3539 34.5625 23.5649 34.7702C23.6704 34.8757 23.7758 35.0899 23.7758 35.3009C23.5649 35.8283 22.9288 36.1479 22.4013 36.1479C22.2958 36.1479 22.2958 36.0425 22.1904 35.937C22.1904 35.8315 22.2958 35.6173 22.4013 35.6173C22.6123 35.6173 22.932 35.5118 23.0374 35.3009C23.0374 35.1954 22.932 35.0899 22.932 35.1954C22.6155 35.1954 22.4013 35.1954 22.0881 35.0899C21.9826 35.0899 21.9826 34.8789 21.8771 34.7702L21.5606 35.0899C21.6661 35.6173 21.8771 36.0424 21.8771 36.4644C21.8771 36.5699 21.7716 36.6754 21.5606 36.6754H21.3497C21.03 36.3557 21.1387 35.7228 20.819 35.4095C20.7136 35.3041 20.3971 35.4095 20.3971 35.1986C20.2916 35.0931 20.3971 34.8789 20.5026 34.7734C20.7136 34.5657 21.241 34.457 21.5606 34.3515C21.6661 34.457 21.8771 34.457 21.8771 34.5625C21.8771 34.457 21.9826 34.457 21.9826 34.3515C22.0406 34.1717 22.1529 34.0144 22.304 33.901C22.4551 33.7877 22.6377 33.724 22.8265 33.7186C22.9851 33.7448 23.1322 33.8184 23.2484 33.9295Z" fill="#8C9295"/>
<path d="M7.39678 8.24856C8.66261 9.51438 8.7713 11.525 8.13519 13.1105C7.82192 13.3215 7.61095 13.6411 7.2913 13.5324C7.18901 13.3215 6.86936 13.3215 6.76387 13.1105C6.86936 12.8995 7.08033 12.6885 7.2913 12.6885C7.71324 11.5282 7.82192 10.3615 7.08033 9.20112C6.44741 8.46272 5.17839 8.14307 4.22902 8.24856C3.06548 8.99015 1.69097 9.62307 1.37451 11.314C1.26902 12.2666 2.00742 12.794 2.64353 13.3215C3.17416 13.6411 3.91256 13.9544 4.43999 13.4269C5.0729 12.794 5.39256 12.0556 5.39256 11.314C4.43999 10.7866 4.01805 12.5799 3.17416 11.6305C3.15671 11.0059 3.3838 10.3992 3.80707 9.93952C4.43999 9.51438 5.18158 9.72855 5.70901 10.256C6.23644 10.9944 6.87255 12.0524 6.44741 13.005C5.70901 13.8521 4.75645 14.3795 3.80388 15.0124C2.64034 14.6928 1.16354 14.0599 0.738399 12.6853C0.21097 11.9469 0.105485 10.7866 0.530624 9.83404C0.952567 8.77598 1.58868 7.9321 2.53805 7.50696C4.22902 7.29918 6.02547 6.98273 7.39678 8.24856Z" fill="#8C9295"/>
<path d="M9.30193 13.4269L9.40742 13.3215L9.5129 13.216C9.72387 12.8995 9.82936 12.5831 10.0435 12.2666C10.1458 11.8415 10.2513 11.5282 10.3568 11.1031C10.4623 10.3615 10.4623 9.62306 9.82936 8.99014C9.61839 8.46271 9.30193 8.14306 9.08776 7.72112C8.80929 7.43003 8.56183 7.11079 8.34936 6.76855C7.81874 6.03015 7.39679 5.39404 7.18582 4.2337C7.39679 2.7537 8.34936 1.38238 9.82936 0.640788C10.6104 0.331786 11.4262 0.119244 12.2587 0.00787354C13.9497 0.113359 15.5352 1.06273 15.9571 2.64821C16.0626 4.2337 15.5352 6.13563 13.8442 6.87403C13.2113 7.08501 12.6839 7.08501 12.2587 6.87403C12.0478 6.76855 11.8368 6.55758 11.5203 6.45529C11.3094 6.3498 11.0984 6.13563 10.8874 6.03015C10.571 5.71369 10.571 5.39723 10.571 4.97529C10.571 4.76432 10.571 4.65564 10.6764 4.44467C10.6764 4.2337 10.7819 4.12821 10.7819 3.91404C10.9673 3.35145 11.5427 3.0254 12.2587 2.53953H12.3642L12.9971 2.86238C13.2081 3.07016 13.4223 3.17884 13.4223 3.4953C13.6332 4.33918 13.2113 4.33918 12.7862 4.33918H12.3642C12.2587 4.33918 12.1532 4.44467 12.1532 4.65564C12.4697 5.18307 13.3168 5.28855 14.0552 5.28855C14.4771 4.86661 14.8991 4.2337 14.7936 3.60078L14.8991 3.4953C14.7968 3.38981 14.7968 3.28113 14.7968 3.28113C14.6913 3.07016 14.6913 2.96467 14.6913 2.7537C14.5858 2.43405 14.5858 2.12078 14.2693 2.0153C13.7387 1.80433 13.2113 1.48467 12.6839 1.38238C12.1782 1.18799 11.6258 1.15012 11.0984 1.2737C10.2513 1.59016 9.5129 2.12078 9.19325 2.86238C8.45485 4.12821 8.7713 5.60821 9.61839 6.76855C11.0984 8.24855 11.5203 8.88146 11.6258 10.7866C11.4148 12.1611 10.2513 13.005 9.72387 13.4269L9.61839 13.5324H9.5129L9.40422 13.6411C9.30193 13.6411 9.19325 13.4269 9.30193 13.4269Z" fill="#8C9295"/>
<path d="M17.0152 13.7466C15.1132 14.0598 12.4697 14.5905 10.5677 15.5398C7.29129 16.5979 3.48741 18.2889 2.21838 21.6708L3.38192 21.7763C5.17837 20.0853 7.29129 18.714 9.51288 17.3395C9.82934 17.5473 10.2513 17.7614 10.6764 17.5473C11.4148 15.9618 12.6838 17.5473 13.6364 16.4924C14.6945 16.8089 15.5384 16.1727 16.4909 15.754C16.9097 15.6485 17.5426 15.965 17.7567 16.4924C18.1787 16.0673 18.8116 15.754 19.0226 15.1179C19.6555 13.5324 17.5426 14.485 17.0152 13.7466ZM20.2916 15.8595C17.2261 18.9218 13.3168 20.6127 8.98545 21.8818L8.6658 22.3069C6.76386 22.5179 4.86192 23.4672 2.95998 23.3618L3.4906 25.7943C4.54866 26.9547 4.43997 29.4927 6.4474 29.5982C9.09094 29.5982 12.1564 29.806 14.3748 28.1182C16.2768 27.7986 18.0732 26.4272 19.7642 25.3692C20.0806 23.6782 22.51 24.5253 22.721 23.0453C22.299 20.6127 21.3497 18.2889 20.2916 15.8595ZM24.8371 39.2134C24.201 34.8789 22.9319 30.1256 22.0881 25.6856C20.0806 27.6931 17.4371 28.6456 15.0077 29.806C12.9971 31.5001 10.2513 31.1805 7.9274 31.8166C9.82934 35.726 12.2587 39.5298 14.1606 43.2282C14.899 44.6027 15.1132 46.396 16.379 47.4541C19.8665 48.9341 22.8265 45.9741 25.3613 43.9666C24.8371 42.4898 24.7284 40.5847 24.8371 39.2134ZM16.0626 12.3721C17.6481 11.5282 18.9171 12.8995 20.5026 12.794C22.9319 14.6959 22.51 19.1327 23.99 21.4598C24.6229 21.4598 24.9426 22.0927 24.8371 22.6202C24.4119 23.0453 24.3065 23.7837 23.779 23.7837C23.99 25.0495 24.0955 26.3186 24.7284 27.5844C24.6229 28.8534 25.0449 30.4389 25.2558 32.0244C25.2558 35.5118 27.3719 38.2608 27.0523 41.8537C27.2632 42.9086 27.8962 44.1776 26.9468 44.8137L26.7358 44.7082C26.2084 46.8211 24.201 48.1957 22.0881 48.8286C20.1861 49.1482 17.9645 49.567 15.8516 49.9889C14.4771 48.4098 13.9497 46.1882 12.7861 44.3918C10.6732 40.4824 8.34934 35.9369 6.02226 31.7111L3.91255 31.0782C3.06546 28.3292 1.16672 26.3218 0.425124 23.5727C-0.316473 21.9873 1.16352 20.0853 2.11609 19.0273C5.17837 16.7034 8.03288 13.9544 11.7313 12.794C13.1058 12.8995 14.5826 12.3721 16.0626 12.3721Z" fill="#8C9295"/>
</g>
<defs>
<clipPath id="clip0_4_302">
<rect width="140.449" height="50" fill="white"/>
</clipPath>
</defs>
</svg>
