<svg width="154" height="50" viewBox="0 0 154 50" fill="none" xmlns="http://www.w3.org/2000/svg">
<g clip-path="url(#clip0_4_148)">
<path d="M18.8655 0.00442505H20.2278C24.957 0.107235 29.6091 2.00921 32.9505 5.37623C31.7167 6.63564 30.4573 7.84366 29.2493 9.10307C27.373 7.40672 25.1112 6.09589 22.6438 5.63325C18.9941 4.86218 15.0616 5.55614 12.003 7.63804C8.66169 9.82274 6.39988 13.5239 5.91154 17.4821C5.37179 21.3888 6.47699 25.5012 9.02153 28.5341C11.4633 31.4899 15.1901 33.3404 19.0455 33.4689C22.6438 33.6746 26.3963 32.5694 29.018 30.0505C31.0742 28.2771 32.0252 25.5783 32.3336 22.9567C28.067 22.9567 23.8004 22.9824 19.5338 22.9567V17.662H37.4998C38.4251 23.3422 37.0885 29.7421 32.7705 33.8031C29.8919 36.6817 25.908 38.3781 21.847 38.7122C17.9146 39.0978 13.8536 38.3524 10.3581 36.4504C6.16856 34.2143 2.82725 30.4361 1.1823 25.9895C-0.359849 21.9029 -0.385551 17.2764 1.05378 13.1641C2.36461 9.4115 4.88344 6.09589 8.12194 3.78268C11.2319 1.49516 15.0102 0.235747 18.8655 0.00442505Z" fill="#8C9295"/>
<path d="M121.932 1.34094H127.432V38.044C125.608 38.044 123.757 38.0697 121.932 38.0183C121.958 25.8096 121.932 13.5753 121.932 1.34094Z" fill="#8C9295"/>
<path d="M49.7341 14.0636C53.1268 13.4211 56.8023 14.1407 59.6038 16.1712C62.1484 17.9704 63.9219 20.7977 64.4616 23.8819C65.1556 27.4546 64.2817 31.3613 61.9685 34.1886C59.4753 37.35 55.3887 39.0464 51.4048 38.7893C47.755 38.5837 44.2081 36.7588 42.0491 33.7774C39.6074 30.4875 39.0162 25.9638 40.3527 22.1085C41.6893 17.9704 45.4675 14.809 49.7341 14.0636ZM50.5052 18.9471C49.1173 19.3069 47.8321 20.1037 46.9069 21.2346C44.4137 24.2161 44.5679 29.0738 47.3181 31.8497C48.8859 33.4432 51.2506 34.1886 53.4353 33.7517C55.4658 33.3918 57.2392 32.0296 58.2159 30.2304C59.9123 27.1719 59.4239 22.9567 56.828 20.5663C55.1573 19.0242 52.7156 18.3816 50.5052 18.9471Z" fill="#8C9295"/>
<path d="M76.9787 14.0636C80.8597 13.3183 85.1006 14.3978 88.005 17.1222C92.7342 21.3631 93.2483 29.3052 89.213 34.1886C86.7713 37.2729 82.8131 38.9693 78.9064 38.7893C75.1795 38.6865 71.5041 36.836 69.2937 33.7774C66.8005 30.4104 66.2608 25.7839 67.6744 21.8515C69.088 17.8419 72.7892 14.7833 76.9787 14.0636ZM77.7497 18.9471C76.3618 19.3069 75.0767 20.1037 74.1514 21.2089C71.684 24.139 71.7868 28.9196 74.4341 31.7212C76.002 33.3918 78.4437 34.2143 80.7055 33.7517C82.7103 33.3661 84.5095 32.0296 85.4862 30.2304C87.1568 27.1462 86.6685 22.931 84.0468 20.5406C82.3762 18.9985 79.9344 18.3816 77.7497 18.9471Z" fill="#8C9295"/>
<path d="M100.085 15.5544C103.041 13.7038 106.973 13.1898 110.16 14.7833C111.163 15.2202 111.985 15.9656 112.782 16.711C112.808 16.017 112.782 15.2974 112.808 14.5777C114.53 14.6034 116.252 14.5777 118 14.6034V37.2729C117.974 40.6913 117.1 44.3154 114.633 46.8085C111.934 49.5586 107.796 50.4068 104.069 49.8414C100.085 49.2502 96.6153 46.3458 95.0732 42.6704C96.6153 41.925 98.2346 41.3339 99.8281 40.6399C100.728 42.7475 102.553 44.5467 104.84 44.9579C107.128 45.3692 109.775 44.8037 111.266 42.9017C112.859 40.9483 112.859 38.2753 112.782 35.885C111.6 37.0416 110.238 38.0697 108.593 38.4552C105.02 39.4576 101.088 38.2239 98.3374 35.8079C95.5615 33.3918 93.9166 29.665 94.0708 25.9638C94.1479 21.7744 96.5125 17.7391 100.085 15.5544ZM105.406 18.8443C103.838 19.1013 102.373 19.9752 101.37 21.1832C98.9542 24.0619 98.9542 28.6626 101.396 31.4899C102.784 33.1605 105.02 34.0858 107.179 33.8545C109.209 33.6489 111.086 32.3637 112.088 30.5903C113.785 27.5831 113.502 23.4964 111.214 20.8748C109.801 19.2555 107.539 18.4587 105.406 18.8443Z" fill="#8C9295"/>
<path d="M134.038 16.8652C137.122 13.9865 141.877 13.0098 145.835 14.5263C149.588 15.9399 151.978 19.5125 153.186 23.188C147.609 25.5012 142.057 27.7887 136.48 30.1019C137.251 31.567 138.433 32.9035 140.027 33.4432C142.263 34.24 144.936 33.9573 146.812 32.4665C147.557 31.9011 148.149 31.1557 148.714 30.4361C150.128 31.387 151.541 32.3123 152.955 33.2633C150.95 36.2705 147.583 38.3781 143.959 38.7122C139.95 39.2006 135.683 37.6584 133.087 34.5227C128.82 29.5879 129.232 21.3117 134.038 16.8652ZM136.788 21.6201C135.914 22.8795 135.554 24.4217 135.58 25.9381C139.307 24.396 143.034 22.8538 146.761 21.286C146.144 19.8467 144.653 18.9728 143.137 18.7415C140.695 18.3045 138.15 19.6153 136.788 21.6201Z" fill="#8C9295"/>
</g>
<defs>
<clipPath id="clip0_4_148">
<rect width="153.186" height="50" fill="white"/>
</clipPath>
</defs>
</svg>
