<svg width="106" height="50" viewBox="0 0 106 50" fill="none" xmlns="http://www.w3.org/2000/svg">
<g clip-path="url(#clip0_4_314)">
<path d="M0.00372314 50H105.038V0H0.00372314V50Z" fill="#E7EBED"/>
<path d="M82.8342 32.2146C84.6946 32.209 87.028 31.6905 88.8694 31.0786L87.7686 35.809C85.4589 36.2679 82.8651 36.6599 79.8185 36.6723C70.2975 36.714 66.2005 31.8227 66.187 26.7464C66.165 19.9503 73.47 13.1677 85.2362 13.3314C87.7322 13.3652 90.1094 13.8123 91.7094 14.3342L90.1533 19.9132H89.3642C88.3912 18.641 86.9132 17.6765 83.9972 17.6765C78.0341 17.6765 74.3445 20.9402 74.3559 25.2909C74.3672 29.2289 77.7641 32.2287 82.8342 32.2146ZM48.4313 13.5466L48.0596 15.0252C48.0596 15.0252 50.3159 15.272 49.6235 17.5217L44.4933 36.1693L54.7497 36.1867L55.1355 34.5839C55.1355 34.5839 53.2178 34.1193 53.7161 32.3512C53.7561 32.1881 55.2217 26.816 55.2217 26.816L59.9239 26.8082C62.2647 26.8205 63.0391 28.0341 63.0391 28.0341L64.4024 22.4967H56.4806L57.6588 18.1471L64.541 18.1392C65.8075 18.1392 66.6944 18.9885 66.6944 19.6077H67.4733L68.9912 13.5467L48.4313 13.5466ZM40.6533 32.8402C40.0476 32.1901 34.7683 23.9615 34.7683 23.9615L44.4203 16.2374C46.0457 14.8803 47.2003 15.0243 47.2003 15.0243L47.5783 13.5362L35.5725 13.5458L35.2036 15.0244C36.0196 15.0795 37.1597 15.809 36.2261 16.6733C36.1102 16.7819 26.5826 24.0572 26.5826 24.0572L28.6326 16.6295C29.0567 15.1948 30.5976 15.0244 30.5976 15.0244L30.9732 13.5408L19.511 13.5465L19.1432 15.0284C19.6893 15.1657 21.2533 15.4665 20.7089 17.5244C16.8839 31.3533 17.3272 29.9772 17.069 30.7364C16.0224 34.73 14.3385 34.5271 13.7266 34.5687L13.3313 36.1693H25.3172L25.7216 34.5489C25.7216 34.5489 23.8167 34.1664 24.1817 32.7971C24.5417 31.4405 26.0467 25.9977 26.0467 25.9977C28.1208 29.3349 28.6072 29.7454 31.1077 33.189C33.6098 36.6326 36.2875 36.1771 43.3754 36.1793L43.7691 34.5854C42.2563 34.5927 41.2603 33.4899 40.6534 32.8409" fill="#8C9295"/>
</g>
<defs>
<clipPath id="clip0_4_314">
<rect width="105.042" height="50" fill="white"/>
</clipPath>
</defs>
</svg>
