<svg width="167" height="50" viewBox="0 0 167 50" fill="none" xmlns="http://www.w3.org/2000/svg">
<g clip-path="url(#clip0_4_264)">
<path d="M24.9998 3.05176e-05C11.1931 3.05176e-05 1.90735e-06 11.1928 1.90735e-06 24.9996C1.90735e-06 38.8078 11.1931 50 24.9998 50C38.8072 50 49.9997 38.8078 49.9997 24.9996C49.9997 11.1937 38.8078 0.00122373 24.9995 0.00122373L24.9998 3.05176e-05ZM36.4646 36.0565C36.0156 36.793 35.0562 37.0238 34.3221 36.5751C28.4514 32.9871 21.0622 32.1765 12.36 34.1645C11.5215 34.3567 10.6856 33.831 10.4945 32.9927C10.3026 32.1541 10.8259 31.3183 11.6666 31.1272C21.1897 28.95 29.3584 29.8871 35.9479 33.9137C36.6822 34.3645 36.9151 35.3228 36.4643 36.0571L36.4646 36.0565ZM39.5245 29.2504C38.9591 30.1677 37.7596 30.4555 36.8435 29.8922C30.125 25.7623 19.8803 24.5661 11.932 26.9788C10.9011 27.2902 9.8124 26.7093 9.49953 25.6802C9.18906 24.6494 9.77031 23.5627 10.7993 23.2493C19.8786 20.4945 31.1654 21.8289 38.8824 26.5711C39.7989 27.1353 40.0885 28.3354 39.5242 29.2507L39.5245 29.2504ZM39.7873 22.162C31.7287 17.3763 18.4363 16.9363 10.7435 19.2711C9.50818 19.6457 8.20181 18.9483 7.82745 17.713C7.45309 16.4771 8.14987 15.1716 9.38608 14.7961C18.2169 12.1153 32.8972 12.6332 42.1737 18.1402C43.2848 18.7997 43.6493 20.2347 42.9908 21.3444C42.334 22.4555 40.8951 22.8218 39.7875 22.162H39.7873ZM68.0163 23.0791C63.6999 22.0498 62.9314 21.3274 62.9314 19.8093C62.9314 18.3752 64.2817 17.41 66.2896 17.41C68.236 17.41 70.166 18.1429 72.1895 19.6517C72.2507 19.6974 72.3274 19.7156 72.4029 19.7036C72.4784 19.6923 72.5453 19.6508 72.5895 19.5884L74.6971 16.6174C74.7837 16.495 74.7601 16.3264 74.6434 16.2329C72.2352 14.3005 69.5233 13.3611 66.3535 13.3611C61.6929 13.3611 58.4374 16.158 58.4374 20.1598C58.4374 24.4512 61.2457 25.9707 66.0986 27.1436C70.2291 28.095 70.9261 28.8921 70.9261 30.317C70.9261 31.8959 69.5165 32.8775 67.2479 32.8775C64.7283 32.8775 62.6732 32.0288 60.3742 30.0379C60.3172 29.9886 60.239 29.9662 60.1668 29.9704C60.0906 29.9767 60.0211 30.0119 59.9727 30.0701L57.6096 32.8826C57.5105 32.9993 57.523 33.1736 57.6376 33.2746C60.3125 35.6625 63.6023 36.9238 67.1524 36.9238C72.1746 36.9238 75.4199 34.1797 75.4199 29.9325C75.4289 26.3472 73.2824 24.3619 68.0253 23.083L68.0163 23.0791ZM86.782 18.8221C84.6051 18.8221 82.8196 19.6795 81.3472 21.4363V19.4588C81.3472 19.3027 81.2206 19.1755 81.0648 19.1755H77.1997C77.0436 19.1755 76.9173 19.3027 76.9173 19.4588V41.4313C76.9173 41.5874 77.0436 41.7146 77.1997 41.7146H81.0648C81.2206 41.7146 81.3472 41.5874 81.3472 41.4313V34.4955C82.8199 36.1482 84.6057 36.9557 86.782 36.9557C90.8267 36.9557 94.9214 33.8421 94.9214 27.8899C94.9274 21.9364 90.8315 18.8218 86.7864 18.8218L86.782 18.8221ZM90.427 27.8899C90.427 30.9209 88.56 33.036 85.8866 33.036C83.2438 33.036 81.2502 30.8248 81.2502 27.8899C81.2502 24.9554 83.2438 22.7439 85.8866 22.7439C88.5167 22.7436 90.4273 24.9073 90.4273 27.8896L90.427 27.8899ZM105.416 18.8221C100.207 18.8221 96.1263 22.8331 96.1263 27.9547C96.1263 33.0205 100.179 36.9894 105.352 36.9894C110.58 36.9894 114.673 32.9918 114.673 27.8899C114.673 22.8057 110.607 18.8227 105.416 18.8227L105.416 18.8221ZM105.416 33.0662C102.646 33.0662 100.557 30.84 100.557 27.8884C100.557 24.9243 102.573 22.7734 105.352 22.7734C108.141 22.7734 110.244 24.9996 110.244 27.9532C110.244 30.9167 108.214 33.0662 105.417 33.0662H105.416ZM125.797 19.1756H121.544V14.8271C121.544 14.6713 121.418 14.5441 121.262 14.5441H117.397C117.241 14.5441 117.114 14.6713 117.114 14.8271V19.1756H115.256C115.1 19.1756 114.974 19.3027 114.974 19.4588V22.7806C114.974 22.9364 115.1 23.0639 115.256 23.0639H117.114V31.6589C117.114 35.1323 118.843 36.8933 122.252 36.8933C123.639 36.8933 124.789 36.607 125.873 35.9924C125.961 35.9431 126.015 35.8482 126.015 35.7473V32.584C126.015 32.4864 125.965 32.3942 125.881 32.3431C125.797 32.2903 125.692 32.2876 125.606 32.3303C124.861 32.705 124.142 32.8778 123.337 32.8778C122.097 32.8778 121.544 32.3148 121.544 31.0529V23.0654H125.797C125.953 23.0654 126.079 22.9382 126.079 22.7821V19.4607C126.085 19.3045 125.959 19.1774 125.801 19.1774L125.797 19.1756ZM140.616 19.1926V18.6585C140.616 17.0873 141.218 16.3867 142.57 16.3867C143.375 16.3867 144.023 16.5467 144.747 16.7885C144.837 16.8166 144.93 16.8025 145.002 16.7491C145.077 16.6956 145.119 16.61 145.119 16.5192V13.2622C145.119 13.1377 145.039 13.0276 144.919 12.9909C144.153 12.7631 143.174 12.5293 141.707 12.5293C138.137 12.5293 136.25 14.5396 136.25 18.3408V19.1588H134.393C134.237 19.1588 134.109 19.286 134.109 19.4418V22.7806C134.109 22.9364 134.237 23.0639 134.393 23.0639H136.25V36.3213C136.25 36.4774 136.376 36.6046 136.532 36.6046H140.397C140.553 36.6046 140.68 36.4774 140.68 36.3213V23.0648H144.289L149.816 36.319C149.189 37.7116 148.572 37.9886 147.729 37.9886C147.048 37.9886 146.331 37.7853 145.598 37.3841C145.529 37.3462 145.447 37.3399 145.373 37.3629C145.299 37.3889 145.237 37.4438 145.206 37.5155L143.896 40.3894C143.834 40.5252 143.887 40.6847 144.018 40.7551C145.385 41.4958 146.62 41.8119 148.146 41.8119C150.999 41.8119 152.577 40.4826 153.968 36.9062L160.673 19.5794C160.707 19.4923 160.696 19.3938 160.643 19.3164C160.59 19.2397 160.504 19.1934 160.41 19.1934H156.387C156.266 19.1934 156.158 19.2702 156.119 19.3833L151.997 31.1568L147.483 19.3756C147.441 19.266 147.336 19.1934 147.219 19.1934H140.615L140.616 19.1926ZM132.024 19.1756H128.159C128.003 19.1756 127.876 19.3027 127.876 19.4588V36.3213C127.876 36.4775 128.003 36.6046 128.159 36.6046H132.024C132.18 36.6046 132.308 36.4775 132.308 36.3213V19.46C132.308 19.4228 132.3 19.3859 132.286 19.3514C132.272 19.317 132.251 19.2857 132.225 19.2594C132.198 19.2331 132.167 19.2122 132.133 19.198C132.098 19.1838 132.061 19.1766 132.024 19.1767L132.024 19.1756ZM130.114 11.4976C128.583 11.4976 127.34 12.7371 127.34 14.2683C127.34 15.8004 128.583 17.0414 130.114 17.0414C131.644 17.0414 132.886 15.8004 132.886 14.2683C132.886 12.7374 131.644 11.4976 130.115 11.4976H130.114ZM163.973 24.5972C162.443 24.5972 161.253 23.3687 161.253 21.8769C161.253 20.3852 162.459 19.1427 163.987 19.1427C165.517 19.1427 166.707 20.3709 166.707 21.8614C166.707 23.3532 165.501 24.5972 163.973 24.5972H163.973ZM163.988 19.4132C162.595 19.4132 161.541 20.5207 161.541 21.8769C161.541 23.2326 162.587 24.3252 163.974 24.3252C165.367 24.3252 166.422 23.2186 166.422 21.8614C166.422 20.5058 165.374 19.4132 163.989 19.4132H163.988ZM164.591 22.1411L165.36 23.2182H164.712L164.019 22.2301H163.423V23.2182H162.88V20.3631H164.154C164.817 20.3631 165.253 20.7025 165.253 21.2739C165.256 21.742 164.985 22.028 164.593 22.1411L164.591 22.1411ZM164.131 20.853H163.423V21.7561H164.131C164.485 21.7561 164.696 21.5832 164.696 21.3041C164.696 21.0103 164.484 20.853 164.132 20.853L164.131 20.853Z" fill="#8C9295"/>
</g>
<defs>
<clipPath id="clip0_4_264">
<rect width="166.707" height="50" fill="white"/>
</clipPath>
</defs>
</svg>
