<svg width="155" height="50" viewBox="0 0 155 50" fill="none" xmlns="http://www.w3.org/2000/svg">
<g clip-path="url(#clip0_4_255)">
<path d="M147.163 35.897C149.261 35.897 151.019 37.6105 151.019 39.717C151.019 41.8224 149.31 43.5368 147.163 43.5368H147.212L145.748 43.5859H143.697L118.656 43.6348C118.266 43.6348 117.973 43.2922 118.07 42.9002L119.094 38.8351H118.118L115.629 43.4388C115.58 43.5857 115.288 43.7327 115.142 43.7327L78.1902 43.7814C77.8481 43.7814 77.6033 43.4875 77.6531 43.1447L77.9934 39.7168C74.2362 42.9488 69.0611 43.6834 65.9854 43.6834H50.8537C50.4145 43.6834 50.1704 43.3406 50.3166 42.8999L50.8537 41.2841C48.3648 43.1447 45.0452 44.5164 40.5549 44.5164C35.2835 44.5164 32.1589 42.557 30.8415 39.5206C27.6196 42.6549 22.6893 44.4673 17.7582 44.4673C16.2458 44.4673 14.7322 44.3203 13.3168 43.9775L11.5105 49.5608C11.3146 50.0988 10.7775 50.1475 10.4852 49.6581L0.0882728 32.8115C-0.10855 32.5174 0.038279 32.1256 0.380579 31.9788L15.4641 25.7586C15.4152 25.6608 15.3661 25.5147 15.3173 25.4167C14.5361 23.4082 14.3901 20.0291 14.8781 17.8737C15.6593 14.5437 19.8077 6.26703 30.8892 6.75684C33.1349 6.8548 36.0638 7.78554 38.0161 8.86311L38.6013 7.44256C38.6993 7.24664 38.9434 7.05072 39.1882 7.05072L74.5283 6.95276C76.9201 6.95276 79.5076 7.49166 81.4592 8.81424L81.606 7.58962C81.606 7.29574 81.8983 7.09981 82.1424 7.09981H145.062C145.356 7.09981 145.6 7.34483 145.649 7.63871L146.43 13.858C148.919 11.1649 150.92 9.5002 153.459 8.22648C155.461 7.19777 157.95 7.00185 159.61 6.95299H160.44L162.539 0.439819C162.685 -0.0990786 163.271 -0.147946 163.563 0.341858L173.765 16.8952C173.961 17.238 173.814 17.581 173.472 17.728L155.753 24.878C155.216 25.1228 154.825 24.731 154.972 24.1923L155.509 22.5268C154.289 23.7514 153.02 25.2208 151.75 26.8855C150.043 29.1388 147.895 33.6445 147.308 35.3581L147.162 35.7988" fill="#E7EBED"/>
<path d="M160.293 16.6014L159.122 20.4212L169.91 16.0625L163.76 6.07135L162.54 9.89138C162.54 9.89138 157.511 9.40247 154.779 10.773C152.484 11.9488 150.677 13.4182 148.091 16.2584C146.773 17.6789 144.43 21.156 144.43 21.156L142.966 9.89138H135.106L137.791 27.4732L133.104 40.8925H142.38C142.38 40.8925 144.43 35.0151 144.624 34.4285C145.259 32.5188 147.553 27.6703 149.456 25.1719C152.825 20.7641 156.925 16.5034 160.293 16.6014Z" fill="#8C9295"/>
<path d="M53.1978 10.185L46.7051 29.6775C46.4112 30.4605 46.1182 31.4889 45.582 32.3706C45.0947 33.2034 44.3617 33.8391 43.1413 33.8391C42.0183 33.8391 41.726 33.2034 41.726 32.3217C41.7751 31.4889 42.166 30.4602 42.4583 29.6275L48.9508 10.185H40.6038L33.8191 30.4114C32.5987 34.1332 30.8902 41.6262 40.5547 41.6262C50.2202 41.6262 53.538 34.1334 54.8084 30.4114L61.5449 10.185H53.1978Z" fill="#8C9295"/>
<path d="M102.548 40.8923L119.047 9.94025H110.944L101.912 29.1388C102.302 26.8855 105.231 9.94025 105.231 9.94025H98.0556C98.0556 9.94025 89.7573 26.9834 88.781 29.2856L92.4421 9.94025H84.1928L80.775 40.8923H88.8781L97.8112 21.5478C97.3723 23.6534 94.4434 40.8923 94.4434 40.8923H102.548ZM119.73 29.5795H123.928L125.783 18.2658L119.73 29.5795ZM122.61 9.94025H133.984L130.323 40.9414H121.535L122.658 35.9456H116.459L113.774 40.8432H106.013L122.61 9.94025Z" fill="#8C9295"/>
<path d="M10.2909 43.9286L3.94434 33.5955L15.1231 28.992L13.9019 32.8609C15.27 33.7416 16.8806 33.9866 18.3939 33.8887C19.7113 33.7905 21.2735 33.2036 21.7617 32.0769C22.0547 31.3421 21.6636 29.6777 20.5905 28.6001C19.3701 27.3264 18.4919 25.6611 18.003 24.3882C17.4666 22.9188 17.2706 20.1764 17.6625 18.511C18.2957 15.9647 21.5676 9.20655 30.744 9.64749C32.7455 9.69568 35.6742 10.7244 37.1378 11.6551L33.7209 18.1683C29.8648 15.867 27.5223 16.6998 26.6429 18.8051C25.7655 20.9116 27.2298 22.9191 28.5956 24.5355C30.3039 26.4941 31.6711 28.6006 31.6711 31.098C31.6711 36.9261 25.4228 41.6269 17.7589 41.6269C15.465 41.6269 13.3175 41.1871 11.4621 40.452L10.2909 43.9286ZM54.0272 40.9903H65.9861C70.1842 40.9903 77.0178 39.5697 79.1173 33.2036C80.3377 29.5306 78.1402 26.0527 75.8957 24.8781C78.2872 23.9962 80.6307 21.0092 81.3141 18.6579C83.2175 11.9488 79.2155 10.0384 74.5283 10.0384H64.3266L54.0272 40.9903ZM66.8164 28.6488C69.745 28.5019 71.5027 29.6277 71.0145 31.6362C70.5754 33.5955 68.9641 34.2805 67.2066 34.2805H64.9128L66.8164 28.6488ZM68.3786 22.1347L70.2331 16.7482H71.6475C72.8188 16.7482 74.9672 16.9441 73.9418 19.5884C73.0645 21.6949 70.8181 22.1347 69.5496 22.1347H68.3786Z" fill="#8C9295"/>
<path d="M146.821 39.5697V39.0308H147.162C147.358 39.0308 147.552 39.0799 147.552 39.2756C147.552 39.5697 147.357 39.5697 147.162 39.5697H146.821ZM146.821 39.8145H147.114L147.601 40.5496H147.895L147.407 39.8145C147.651 39.7657 147.846 39.6188 147.846 39.3249C147.846 38.9331 147.651 38.786 147.212 38.786H146.578V40.5493H146.822V39.8143H146.821V39.8145ZM147.163 41.2353C147.992 41.2353 148.676 40.5496 148.676 39.6677C148.676 38.7863 147.992 38.1494 147.163 38.1494C146.285 38.1494 145.6 38.7863 145.6 39.6677C145.601 40.5496 146.284 41.2353 147.163 41.2353ZM145.893 39.6677C145.893 38.9331 146.431 38.3944 147.163 38.3944C147.846 38.3944 148.383 38.9333 148.383 39.6677C148.383 40.4027 147.846 40.9903 147.163 40.9903C146.431 40.9903 145.893 40.4025 145.893 39.6677Z" fill="#8C9295"/>
</g>
<defs>
<clipPath id="clip0_4_255">
<rect width="173.853" height="50" fill="white"/>
</clipPath>
</defs>
</svg>
